<svg xmlns="http://www.w3.org/2000/svg" viewBox="0 0 1200 630" width="1200" height="630">
  <defs>
    <linearGradient id="bg" x1="0" y1="0" x2="1" y2="1">
      <stop offset="0%" stop-color="#080c16"/>
      <stop offset="100%" stop-color="#0f1423"/>
    </linearGradient>
    <linearGradient id="logo" x1="0" y1="0" x2="1" y2="1">
      <stop offset="0%" stop-color="#3b82f6"/>
      <stop offset="100%" stop-color="#06b6d4"/>
    </linearGradient>
    <linearGradient id="green" x1="0" y1="0" x2="1" y2="0">
      <stop offset="0%" stop-color="#10b981"/>
      <stop offset="100%" stop-color="#34d399"/>
    </linearGradient>
  </defs>

  <rect width="1200" height="630" fill="url(#bg)"/>

  <g opacity="0.08" stroke="#3b82f6" stroke-width="1">
    <line x1="0" y1="100" x2="1200" y2="100"/>
    <line x1="0" y1="200" x2="1200" y2="200"/>
    <line x1="0" y1="300" x2="1200" y2="300"/>
    <line x1="0" y1="400" x2="1200" y2="400"/>
    <line x1="0" y1="500" x2="1200" y2="500"/>
  </g>

  <g transform="translate(90, 210)">
    <rect width="96" height="96" rx="22" fill="url(#logo)"/>
    <path d="M18 62 L36 42 L50 52 L66 22 L84 32" fill="none" stroke="#fff" stroke-width="6" stroke-linecap="round" stroke-linejoin="round"/>
    <circle cx="84" cy="32" r="5" fill="#fff"/>
  </g>

  <text x="220" y="258" font-family="Inter, system-ui, sans-serif" font-size="76" font-weight="700" fill="#ffffff" letter-spacing="-2">PredictFlow</text>
  <text x="220" y="308" font-family="JetBrains Mono, monospace" font-size="22" font-weight="500" fill="#64748b" letter-spacing="4">PREDICTION MARKET TRADING TERMINAL</text>

  <text x="90" y="420" font-family="Inter, system-ui, sans-serif" font-size="32" font-weight="500" fill="#e2e8f0">
    <tspan x="90" dy="0">Limit orders · Stop-loss · Take-profit · DCA</tspan>
    <tspan x="90" dy="44" fill="#64748b" font-size="24">Kalshi markets on Solana, powered by DFlow</tspan>
  </text>

  <g transform="translate(90, 540)">
    <rect width="260" height="48" rx="24" fill="#10b981" fill-opacity="0.1" stroke="#10b981" stroke-opacity="0.4" stroke-width="1"/>
    <circle cx="24" cy="24" r="5" fill="url(#green)"/>
    <text x="40" y="30" font-family="JetBrains Mono, monospace" font-size="16" font-weight="600" fill="#10b981">LIVE ON SOLANA DEVNET</text>
  </g>

  <g transform="translate(860, 350)" opacity="0.9">
    <rect x="0" y="120" width="14" height="60" fill="#10b981"/>
    <line x1="7" y1="100" x2="7" y2="200" stroke="#10b981" stroke-width="1.5"/>
    <rect x="30" y="80" width="14" height="100" fill="#10b981"/>
    <line x1="37" y1="60" x2="37" y2="200" stroke="#10b981" stroke-width="1.5"/>
    <rect x="60" y="100" width="14" height="40" fill="#ef4444"/>
    <line x1="67" y1="80" x2="67" y2="170" stroke="#ef4444" stroke-width="1.5"/>
    <rect x="90" y="40" width="14" height="90" fill="#10b981"/>
    <line x1="97" y1="20" x2="97" y2="160" stroke="#10b981" stroke-width="1.5"/>
    <rect x="120" y="20" width="14" height="70" fill="#10b981"/>
    <line x1="127" y1="0" x2="127" y2="120" stroke="#10b981" stroke-width="1.5"/>
    <rect x="150" y="50" width="14" height="50" fill="#ef4444"/>
    <line x1="157" y1="30" x2="157" y2="130" stroke="#ef4444" stroke-width="1.5"/>
    <rect x="180" y="10" width="14" height="80" fill="#10b981"/>
    <line x1="187" y1="-10" x2="187" y2="120" stroke="#10b981" stroke-width="1.5"/>
  </g>
</svg>
